<?xml version="1.0" encoding="UTF-8"?>
<svg id="Layer_1" data-name="Layer 1" xmlns="http://www.w3.org/2000/svg" version="1.1" xmlns:xlink="http://www.w3.org/1999/xlink" viewBox="0 0 500 500">
  <defs>
    <style>
      .cls-1 {
        fill: url(#linear-gradient);
      }

      .cls-1, .cls-2 {
        stroke-width: 0px;
      }

      .cls-2 {
        fill: #121625;
      }
    </style>
    <linearGradient id="linear-gradient" x1="505.44" y1="139.79" x2="-7.17" y2="360.96" gradientUnits="userSpaceOnUse">
      <stop offset="0" stop-color="#f33e5d"/>
      <stop offset="1" stop-color="#dc2527"/>
    </linearGradient>
  </defs>
  <rect class="cls-1" width="500" height="500" rx="46.99" ry="46.99"/>
  <path class="cls-2" d="M201.47,100.09c18.36,0,27.02,4.85,26,14.53l-10.32,113.96-21.42,156.79c-1.02,6.38-2.43,10.39-4.21,12.05-1.79,1.66-5.93,2.49-12.43,2.49s-12.43-.32-17.78-.96c-5.35-.64-10.13-2.1-14.34-4.4-4.21-2.29-6.06-5.1-5.55-8.41l38.24-271.9c.77-5.61,2.68-9.37,5.74-11.28,3.06-1.91,8.41-2.87,16.06-2.87ZM300.9,113.86c5.1-9.18,15.99-13.77,32.7-13.77s25.05,2.81,25.05,8.41c0,1.53-.64,3.32-1.91,5.35l-74.57,120.46,51.63,151.44c2.04,5.87,2.23,9.69.57,11.47-1.66,1.78-7.01,2.68-16.06,2.68s-18.55-1.09-28.49-3.25c-9.94-2.17-15.81-5.8-17.59-10.9l-47.04-139.59,1.53-11.47,74.19-120.85Z"/>
</svg>